<svg width="183" height="59" viewBox="0 0 183 59" fill="none" xmlns="http://www.w3.org/2000/svg">
<rect x="1.06836" y="1.02344" width="180" height="56" rx="6" fill="#0D0D0D"/>
<path d="M43.1062 34.8165C42.4867 36.1905 42.1882 36.804 41.3902 38.019C40.2772 39.714 38.7052 41.826 36.7597 41.844C35.0317 41.859 34.5877 40.719 32.2402 40.7325C29.8942 40.7445 29.4052 41.865 27.6757 41.8485C25.7302 41.8305 24.2407 39.924 23.1262 38.2275C20.0107 33.4875 19.6852 27.9225 21.6067 24.963C22.9717 22.8615 25.1272 21.6315 27.1522 21.6315C29.2147 21.6315 30.5122 22.7625 32.2162 22.7625C33.8707 22.7625 34.8787 21.6285 37.2637 21.6285C39.0637 21.6285 40.9747 22.611 42.3352 24.306C37.8772 26.7495 38.6002 33.1155 43.1062 34.8165ZM35.4547 19.7355C36.3202 18.6225 36.9787 17.0535 36.7402 15.4485C35.3242 15.546 33.6697 16.446 32.7022 17.6205C31.8262 18.6855 31.1017 20.265 31.3822 21.801C32.9272 21.8475 34.5262 20.925 35.4547 19.7355Z" fill="url(#paint0_linear_1_579)"/>
<path d="M59.8484 16.6956C60.7286 16.6956 61.4018 16.9377 61.8679 17.4221C62.3367 17.9039 62.5711 18.6005 62.5711 19.512C62.5711 20.4234 62.3341 21.1265 61.8601 21.6213C61.3888 22.1135 60.7182 22.3596 59.8484 22.3596H58.0164V16.6956H59.8484ZM59.8484 21.6799C60.4734 21.6799 60.95 21.4963 61.2781 21.1292C61.6062 20.7594 61.7703 20.2203 61.7703 19.512C61.7703 18.814 61.6075 18.2841 61.282 17.9221C60.9565 17.5575 60.4786 17.3752 59.8484 17.3752H58.7859V21.6799H59.8484ZM65.3787 18.1682C65.9959 18.1682 66.4751 18.3557 66.8162 18.7307C67.1574 19.1031 67.328 19.6252 67.328 20.2971C67.328 20.969 67.1574 21.4911 66.8162 21.8635C66.4751 22.2359 65.9959 22.4221 65.3787 22.4221C64.759 22.4221 64.2785 22.2359 63.9373 21.8635C63.5962 21.4911 63.4256 20.969 63.4256 20.2971C63.4256 19.6252 63.5962 19.1031 63.9373 18.7307C64.2785 18.3557 64.759 18.1682 65.3787 18.1682ZM65.3787 18.8323C64.9933 18.8323 64.6991 18.9573 64.4959 19.2073C64.2954 19.4573 64.1952 19.8206 64.1952 20.2971C64.1952 20.7711 64.2954 21.1331 64.4959 21.3831C64.6991 21.6331 64.9933 21.7581 65.3787 21.7581C65.7616 21.7581 66.0545 21.6331 66.2577 21.3831C66.4608 21.1331 66.5623 20.7711 66.5623 20.2971C66.5623 19.8232 66.4608 19.4612 66.2577 19.2112C66.0545 18.9586 65.7616 18.8323 65.3787 18.8323ZM71.2685 20.4143C71.232 20.2815 71.176 20.0471 71.1005 19.7112C71.0849 19.6513 71.0679 19.5836 71.0497 19.5081C71.0341 19.4299 71.0133 19.3453 70.9872 19.2542C70.9508 19.3765 70.9078 19.5497 70.8583 19.7737C70.788 20.0784 70.7346 20.2919 70.6982 20.4143L70.1474 22.3596H69.1083L67.9482 18.2463H68.6903L69.2528 20.2893L69.6278 21.6331C69.8101 21.0367 69.9429 20.5888 70.0263 20.2893L70.6278 18.2463H71.3388L71.9403 20.2893C72.0263 20.5888 72.1591 21.0367 72.3388 21.6331L72.7138 20.2893L73.2763 18.2463H74.0185L72.8583 22.3596H71.8192L71.2685 20.4143ZM75.6426 18.8245C75.8405 18.6057 76.0579 18.443 76.2949 18.3362C76.5319 18.2294 76.7975 18.176 77.0918 18.176C77.5293 18.176 77.8639 18.3023 78.0957 18.5549C78.3275 18.8075 78.4433 19.1747 78.4433 19.6565V22.3596H77.6894V19.7112C77.6894 19.4065 77.6269 19.1851 77.5019 19.0471C77.3769 18.9091 77.1764 18.8401 76.9004 18.8401C76.6556 18.8401 76.4264 18.8948 76.2129 19.0042C75.9993 19.1135 75.8275 19.2646 75.6972 19.4573V22.3596H74.9472V18.2463H75.5566L75.6426 18.8245ZM79.8018 16.3596H80.5518V22.3596H79.8018V16.3596ZM83.6407 18.1682C84.2579 18.1682 84.7371 18.3557 85.0782 18.7307C85.4194 19.1031 85.59 19.6252 85.59 20.2971C85.59 20.969 85.4194 21.4911 85.0782 21.8635C84.7371 22.2359 84.2579 22.4221 83.6407 22.4221C83.021 22.4221 82.5405 22.2359 82.1993 21.8635C81.8582 21.4911 81.6876 20.969 81.6876 20.2971C81.6876 19.6252 81.8582 19.1031 82.1993 18.7307C82.5405 18.3557 83.021 18.1682 83.6407 18.1682ZM83.6407 18.8323C83.2553 18.8323 82.9611 18.9573 82.7579 19.2073C82.5574 19.4573 82.4572 19.8206 82.4572 20.2971C82.4572 20.7711 82.5574 21.1331 82.7579 21.3831C82.9611 21.6331 83.2553 21.7581 83.6407 21.7581C84.0236 21.7581 84.3165 21.6331 84.5197 21.3831C84.7228 21.1331 84.8243 20.7711 84.8243 20.2971C84.8243 19.8232 84.7228 19.4612 84.5197 19.2112C84.3165 18.9586 84.0236 18.8323 83.6407 18.8323ZM88.1047 18.1838C88.6177 18.1838 89.0122 18.3193 89.2883 18.5901C89.5669 18.8583 89.7062 19.2424 89.7062 19.7424V22.3596H89.1281L89.0187 21.8792C88.6177 22.2515 88.1672 22.4377 87.6672 22.4377C87.2557 22.4377 86.9289 22.3271 86.6867 22.1057C86.4445 21.8844 86.3234 21.5875 86.3234 21.2151C86.3234 20.7828 86.5005 20.4456 86.8547 20.2034C87.2089 19.9612 87.7062 19.8401 88.3469 19.8401H88.9523V19.7268C88.9315 19.1409 88.6307 18.8479 88.05 18.8479C87.8729 18.8479 87.6737 18.8752 87.4523 18.9299C87.231 18.982 87.0083 19.0536 86.7844 19.1448L86.5773 18.5354C86.8169 18.4234 87.0695 18.3375 87.3352 18.2776C87.6034 18.2151 87.8599 18.1838 88.1047 18.1838ZM88.3937 20.4143C87.9771 20.4143 87.6529 20.4833 87.4211 20.6213C87.1893 20.7568 87.0734 20.9469 87.0734 21.1917C87.0734 21.3792 87.1372 21.5237 87.2648 21.6252C87.3924 21.7242 87.5708 21.7737 87.8 21.7737C88.0187 21.7737 88.2323 21.7281 88.4406 21.637C88.649 21.5432 88.8195 21.4182 88.9523 21.262V20.4143H88.3937ZM93.7639 21.8401C93.5869 22.0432 93.398 22.1917 93.1975 22.2854C92.9996 22.3765 92.7809 22.4221 92.5413 22.4221C91.9658 22.4221 91.5204 22.2437 91.2053 21.887C90.8902 21.5302 90.7327 21.0237 90.7327 20.3674C90.7327 19.6851 90.9189 19.15 91.2913 18.762C91.6663 18.3713 92.1845 18.176 92.846 18.176C93.0855 18.176 93.3759 18.2138 93.7171 18.2893V16.3596H94.4671V22.3518H93.8694L93.7639 21.8401ZM92.5882 21.7581C92.8512 21.7581 93.0803 21.6877 93.2757 21.5471C93.4736 21.4065 93.6207 21.2086 93.7171 20.9534V18.9612C93.5035 18.9091 93.3434 18.8765 93.2366 18.8635C93.1298 18.8479 93.0022 18.8401 92.8538 18.8401C92.4267 18.8401 92.0947 18.9755 91.8577 19.2463C91.6207 19.5146 91.5022 19.8883 91.5022 20.3674C91.5022 20.8101 91.596 21.1526 91.7835 21.3948C91.9736 21.637 92.2418 21.7581 92.5882 21.7581ZM99.5902 18.1682C100.207 18.1682 100.687 18.3557 101.028 18.7307C101.369 19.1031 101.539 19.6252 101.539 20.2971C101.539 20.969 101.369 21.4911 101.028 21.8635C100.687 22.2359 100.207 22.4221 99.5902 22.4221C98.9705 22.4221 98.49 22.2359 98.1488 21.8635C97.8077 21.4911 97.6371 20.969 97.6371 20.2971C97.6371 19.6252 97.8077 19.1031 98.1488 18.7307C98.49 18.3557 98.9705 18.1682 99.5902 18.1682ZM99.5902 18.8323C99.2048 18.8323 98.9106 18.9573 98.7074 19.2073C98.5069 19.4573 98.4067 19.8206 98.4067 20.2971C98.4067 20.7711 98.5069 21.1331 98.7074 21.3831C98.9106 21.6331 99.2048 21.7581 99.5902 21.7581C99.9731 21.7581 100.266 21.6331 100.469 21.3831C100.672 21.1331 100.774 20.7711 100.774 20.2971C100.774 19.8232 100.672 19.4612 100.469 19.2112C100.266 18.9586 99.9731 18.8323 99.5902 18.8323ZM103.367 18.8245C103.565 18.6057 103.782 18.443 104.019 18.3362C104.256 18.2294 104.522 18.176 104.816 18.176C105.253 18.176 105.588 18.3023 105.82 18.5549C106.052 18.8075 106.167 19.1747 106.167 19.6565V22.3596H105.414V19.7112C105.414 19.4065 105.351 19.1851 105.226 19.0471C105.101 18.9091 104.901 18.8401 104.624 18.8401C104.38 18.8401 104.151 18.8948 103.937 19.0042C103.723 19.1135 103.552 19.2646 103.421 19.4573V22.3596H102.671V18.2463H103.281L103.367 18.8245ZM111.9 22.2229C111.59 22.3453 111.302 22.4065 111.037 22.4065C110.641 22.4065 110.339 22.3049 110.13 22.1018C109.925 21.8961 109.822 21.5953 109.822 21.1995V18.8948H109.103V18.2463H109.861L110.021 17.0706H110.576V18.2463H111.83V18.8948H110.576V21.0784C110.576 21.3127 110.621 21.4807 110.713 21.5823C110.806 21.6838 110.96 21.7346 111.173 21.7346C111.361 21.7346 111.556 21.7008 111.759 21.6331L111.9 22.2229ZM113.626 18.7737C114.006 18.3752 114.471 18.176 115.02 18.176C115.458 18.176 115.792 18.3023 116.024 18.5549C116.256 18.8075 116.372 19.1747 116.372 19.6565V22.3596H115.618V19.7112C115.618 19.4065 115.555 19.1851 115.43 19.0471C115.305 18.9091 115.105 18.8401 114.829 18.8401C114.584 18.8401 114.355 18.8948 114.141 19.0042C113.928 19.1135 113.756 19.2646 113.626 19.4573V22.3596H112.876V16.3284H113.626V18.7737ZM118.179 20.4377C118.2 20.8648 118.315 21.1917 118.523 21.4182C118.732 21.6448 119.025 21.7581 119.402 21.7581C119.61 21.7581 119.811 21.7359 120.004 21.6917C120.199 21.6474 120.42 21.5719 120.668 21.4651L120.906 22.0237C120.622 22.1617 120.357 22.2633 120.109 22.3284C119.862 22.3909 119.613 22.4221 119.363 22.4221C118.743 22.4221 118.263 22.2359 117.922 21.8635C117.581 21.4911 117.41 20.969 117.41 20.2971C117.41 19.6252 117.578 19.1044 117.914 18.7346C118.25 18.3622 118.725 18.176 119.34 18.176C119.915 18.176 120.344 18.3492 120.625 18.6956C120.909 19.0419 121.051 19.5667 121.051 20.2698V20.4377H118.179ZM120.273 19.8088C120.252 19.4885 120.161 19.2476 120 19.0862C119.841 18.9221 119.621 18.8401 119.34 18.8401C118.715 18.8401 118.341 19.163 118.219 19.8088H120.273Z" fill="white"/>
<path d="M60.7117 36.25L59.7898 39.1641H57.3836L61.0632 27.8203H64.2976L68.0711 39.1641H65.7039L64.7429 36.25H60.7117ZM62.6492 29.9141L61.2586 34.4453H64.1882L62.7586 29.9141H62.6492ZM74.2646 30.6719C75.426 30.6719 76.3297 31.0312 76.9755 31.75C77.6213 32.4688 77.9442 33.4896 77.9442 34.8125C77.9442 35.7396 77.7594 36.5391 77.3896 37.2109C77.0198 37.8828 76.4963 38.3984 75.8192 38.7578C75.1422 39.112 74.3401 39.2891 73.413 39.2891C72.9755 39.2891 72.5067 39.2318 72.0067 39.1172V42.8281H69.6083V30.7812H71.4442L71.8114 31.7734C72.1656 31.388 72.5354 31.1094 72.9208 30.9375C73.3114 30.7604 73.7594 30.6719 74.2646 30.6719ZM73.2724 37.6562C73.9963 37.6562 74.551 37.4219 74.9364 36.9531C75.3271 36.4844 75.5224 35.7969 75.5224 34.8906C75.5224 33.2031 74.9364 32.362 73.7646 32.3672C73.3375 32.3672 72.9703 32.4818 72.663 32.7109C72.3609 32.9401 72.1422 33.263 72.0067 33.6797V37.4844C72.314 37.5573 72.5458 37.6042 72.7021 37.625C72.8583 37.6458 73.0484 37.6562 73.2724 37.6562ZM84.5518 30.6719C85.7133 30.6719 86.6169 31.0312 87.2627 31.75C87.9086 32.4688 88.2315 33.4896 88.2315 34.8125C88.2315 35.7396 88.0466 36.5391 87.6768 37.2109C87.307 37.8828 86.7836 38.3984 86.1065 38.7578C85.4294 39.112 84.6273 39.2891 83.7002 39.2891C83.2627 39.2891 82.794 39.2318 82.294 39.1172V42.8281H79.8956V30.7812H81.7315L82.0987 31.7734C82.4529 31.388 82.8226 31.1094 83.2081 30.9375C83.5987 30.7604 84.0466 30.6719 84.5518 30.6719ZM83.5596 37.6562C84.2836 37.6562 84.8383 37.4219 85.2237 36.9531C85.6143 36.4844 85.8096 35.7969 85.8096 34.8906C85.8096 33.2031 85.2237 32.362 84.0518 32.3672C83.6247 32.3672 83.2575 32.4818 82.9502 32.7109C82.6482 32.9401 82.4294 33.263 82.294 33.6797V37.4844C82.6013 37.5573 82.8331 37.6042 82.9893 37.625C83.1456 37.6458 83.3357 37.6562 83.5596 37.6562ZM97.7591 27.6797C98.6966 27.6745 99.7513 27.8802 100.923 28.2969L100.431 30.1719C99.3425 29.7865 98.457 29.5938 97.7747 29.5938C97.2227 29.5938 96.7878 29.7031 96.4701 29.9219C96.1524 30.1406 95.9935 30.4375 95.9935 30.8125C95.9935 31.2188 96.1393 31.5417 96.431 31.7812C96.7279 32.0208 97.2669 32.2422 98.0482 32.4453C99.1992 32.7422 100.017 33.1536 100.501 33.6797C100.986 34.2005 101.228 34.9193 101.228 35.8359C101.228 36.9453 100.853 37.7969 100.103 38.3906C99.3581 38.9792 98.293 39.2734 96.9076 39.2734C95.7774 39.2734 94.5664 39.0182 93.2747 38.5078L93.8529 36.6875C94.5664 36.9427 95.1497 37.1224 95.6029 37.2266C96.056 37.3255 96.4857 37.375 96.8919 37.375C97.4805 37.375 97.9336 37.25 98.2513 37C98.5742 36.7448 98.7357 36.3932 98.7357 35.9453C98.7357 35.6589 98.668 35.4193 98.5326 35.2266C98.3971 35.0339 98.168 34.862 97.8451 34.7109C97.5221 34.5547 97.056 34.401 96.4466 34.25C95.431 34.0052 94.6888 33.625 94.2201 33.1094C93.7513 32.5938 93.5169 31.9141 93.5169 31.0703C93.5169 29.9922 93.8867 29.1589 94.6263 28.5703C95.3711 27.9766 96.4154 27.6797 97.7591 27.6797ZM108.343 38.8438C107.619 39.1406 106.927 39.2891 106.265 39.2891C104.421 39.2891 103.499 38.4089 103.499 36.6484V32.4609H102.117V30.7812H103.656L104.117 28.3828H105.882V30.7812H108.171V32.4609H105.882V36.3125C105.882 36.7396 105.96 37.0443 106.117 37.2266C106.278 37.4089 106.552 37.5 106.937 37.5C107.265 37.5 107.617 37.4349 107.992 37.3047L108.343 38.8438ZM113.685 30.5859C115.065 30.5859 116.123 30.9635 116.857 31.7188C117.591 32.4688 117.959 33.5469 117.959 34.9531C117.959 36.3594 117.591 37.4427 116.857 38.2031C116.123 38.9635 115.065 39.3438 113.685 39.3438C112.321 39.3438 111.269 38.9661 110.529 38.2109C109.789 37.4505 109.42 36.3646 109.42 34.9531C109.42 33.5469 109.787 32.4688 110.521 31.7188C111.255 30.9635 112.31 30.5859 113.685 30.5859ZM113.685 32.3828C112.451 32.3776 111.834 33.2344 111.834 34.9531C111.834 36.6719 112.451 37.5312 113.685 37.5312C114.925 37.5312 115.545 36.6719 115.545 34.9531C115.545 33.2344 114.925 32.3776 113.685 32.3828ZM122.051 31.9453C122.577 31.0807 123.314 30.6484 124.261 30.6484C124.465 30.6484 124.636 30.6615 124.777 30.6875C124.923 30.7083 125.108 30.75 125.332 30.8125L125.058 32.9062C124.61 32.7448 124.215 32.6667 123.871 32.6719C123.496 32.6719 123.178 32.7396 122.918 32.875C122.657 33.0052 122.439 33.2135 122.261 33.5V39.1641H119.855V30.7812H121.761L122.051 31.9453ZM128.361 35.4219C128.486 36.849 129.221 37.5625 130.564 37.5625C130.981 37.5625 131.4 37.5156 131.822 37.4219C132.244 37.3229 132.71 37.1667 133.221 36.9531L133.799 38.4453C132.528 39.0339 131.353 39.3255 130.275 39.3203C128.952 39.3203 127.913 38.9349 127.158 38.1641C126.403 37.3932 126.025 36.3229 126.025 34.9531C126.025 33.5885 126.395 32.526 127.135 31.7656C127.874 31 128.911 30.6172 130.244 30.6172C132.749 30.6172 134.002 32.0365 134.002 34.875V35.4219H128.361ZM131.799 34.0312C131.731 32.8646 131.218 32.2812 130.26 32.2812C129.728 32.2812 129.309 32.4271 129.002 32.7188C128.7 33.0052 128.502 33.4427 128.408 34.0312H131.799Z" fill="white"/>
<rect x="1.06836" y="1.02344" width="180" height="56" rx="6" stroke="#B8B8BA" stroke-width="2"/>
<defs>
<linearGradient id="paint0_linear_1_579" x1="20.4138" y1="15.4485" x2="43.106" y2="45.1729" gradientUnits="userSpaceOnUse">
<stop stop-color="#E5E5E5"/>
<stop offset="1" stop-color="white"/>
</linearGradient>
</defs>
</svg>
