<svg width="218" height="42" viewBox="0 0 218 42" fill="none" xmlns="http://www.w3.org/2000/svg">
<g clip-path="url(#clip0_1_447)">
<path d="M13.5257 17.7277L21.9813 9.76799L30.4402 17.7342L35.3575 13.1002L21.9813 0.5L8.60504 13.097L13.5257 17.7277Z" fill="#C7BDB3"/>
<path d="M0.20929 21.0007L5.12815 16.3684L10.047 21.0007L5.12815 25.633L0.20929 21.0007Z" fill="#C7BDB3"/>
<path d="M13.5254 24.2723L21.9809 32.2352L30.4399 24.269L35.3606 28.8966L35.3572 28.8998L21.9809 41.5L8.60472 28.9063L8.59784 28.8998L13.5254 24.2723Z" fill="#C7BDB3"/>
<path d="M33.9069 21.0018L38.8257 16.3695L43.7446 21.0018L38.8257 25.6341L33.9069 21.0018Z" fill="#C7BDB3"/>
<path d="M26.9709 20.9984L21.9815 16.2964L18.2918 19.7711L17.8655 20.1694L16.992 20.9919L16.9852 20.9984L16.992 21.0081L21.9815 25.7036L26.9709 21.0016L26.9743 20.9984H26.9709Z" fill="#C7BDB3"/>
<path d="M51.4194 10.4353H62.1204C64.775 10.4353 66.7832 11.083 68.1449 12.3783C68.6579 12.8568 69.0623 13.4284 69.3336 14.0586C69.605 14.6887 69.7375 15.3642 69.7232 16.044V16.1055C69.7324 16.6625 69.6501 17.2174 69.4791 17.7506C69.3267 18.2096 69.1056 18.6458 68.8223 19.0459C68.5582 19.4232 68.2387 19.7634 67.8732 20.0563C67.5162 20.3457 67.125 20.5956 66.7075 20.8011C67.9116 21.196 68.9943 21.8632 69.8607 22.744C70.6264 23.5644 71.0092 24.6978 71.0092 26.1443V26.2058C71.031 27.1091 70.8223 28.0042 70.4006 28.8158C69.992 29.5637 69.393 30.2045 68.6572 30.6811C67.8253 31.2063 66.8991 31.5849 65.9235 31.7983C64.7645 32.0571 63.5763 32.1822 62.3852 32.1707H51.4194V10.4353ZM61.0476 19.224C61.9734 19.2662 62.8947 19.0786 63.7194 18.68C64.041 18.5031 64.3035 18.2449 64.4773 17.9347C64.6511 17.6245 64.7293 17.2747 64.7028 16.9248V16.8633C64.7198 16.541 64.6503 16.2198 64.5007 15.9294C64.351 15.639 64.1261 15.3889 63.8466 15.2021C63.2758 14.8199 62.4517 14.6289 61.3742 14.6289H56.3676V19.224H61.0476ZM62.3989 27.9836C63.3213 28.0323 64.2394 27.8335 65.0467 27.4104C65.3611 27.2201 65.6157 26.954 65.7838 26.6396C65.9519 26.3252 66.0275 25.9741 66.0026 25.6229V25.5614C66.015 25.2275 65.9403 24.8959 65.785 24.5956C65.6298 24.2952 65.3987 24.0353 65.112 23.8386C64.5206 23.4068 63.5646 23.1909 62.2442 23.1909H56.3676V27.9836H62.3989Z" fill="#C7BDB3"/>
<path d="M77.3839 10.4353H82.4627V32.1772H77.3839V10.4353Z" fill="#C7BDB3"/>
<path d="M90.1489 10.4353H94.8323L105.657 23.8159V10.4353H110.671V32.1772H106.348L95.1693 18.3562V32.1772H90.1489V10.4353Z" fill="#C7BDB3"/>
<path d="M126.047 10.2798H130.724L140.617 32.1771H135.314L133.203 27.3002H123.441L121.329 32.1771H116.151L126.047 10.2798ZM131.391 23.0775L128.317 16.0245L125.256 23.0775H131.391Z" fill="#C7BDB3"/>
<path d="M146.109 10.4353H150.792L161.61 23.8159V10.4353H166.623V32.1772H162.301L151.122 18.3562V32.1772H146.109V10.4353Z" fill="#C7BDB3"/>
<path d="M184.903 32.5592C183.284 32.5723 181.68 32.2771 180.185 31.6913C178.778 31.1443 177.502 30.3375 176.431 29.3186C175.361 28.2998 174.517 27.0894 173.951 25.7588C173.354 24.367 173.051 22.8786 173.06 21.3774V21.3159C173.034 18.3568 174.243 15.5064 176.427 13.3788C177.501 12.3396 178.788 11.5156 180.209 10.9566C181.755 10.3535 183.415 10.0527 185.089 10.0725C186.078 10.0656 187.066 10.1491 188.039 10.3219C188.871 10.4701 189.685 10.699 190.467 11.0051C191.176 11.2864 191.851 11.6405 192.478 12.0608C193.091 12.4708 193.666 12.9279 194.198 13.4274L190.969 16.9377C190.144 16.2209 189.218 15.614 188.218 15.134C187.235 14.6915 186.157 14.4698 185.068 14.4863C184.162 14.4772 183.264 14.6498 182.434 14.9926C181.604 15.3354 180.861 15.8406 180.254 16.4746C179.652 17.107 179.181 17.8395 178.865 18.6346C178.534 19.4747 178.367 20.3646 178.373 21.2608V21.3223C178.37 22.2173 178.536 23.1056 178.865 23.9454C179.177 24.7432 179.644 25.4799 180.24 26.1182C180.842 26.7601 181.584 27.2727 182.414 27.6214C183.245 27.97 184.145 28.1465 185.054 28.1389C186.212 28.1733 187.361 27.9386 188.4 27.4557C189.389 26.9481 190.304 26.321 191.12 25.5904L194.352 28.6668C193.782 29.2501 193.164 29.7914 192.506 30.2859C191.859 30.7676 191.156 31.1793 190.412 31.5132C189.618 31.865 188.782 32.1249 187.922 32.2872C186.928 32.4748 185.917 32.566 184.903 32.5592Z" fill="#C7BDB3"/>
<path d="M200.346 10.4353H217.721V14.6904H205.342V19.101H216.243V23.3561H205.359V27.9221H217.893V32.1772H200.356L200.346 10.4353Z" fill="#C7BDB3"/>
</g>
<defs>
<clipPath id="clip0_1_447">
<rect width="217.678" height="41" fill="white" transform="translate(0.211304 0.5)"/>
</clipPath>
</defs>
</svg>
