<svg width="191" height="30" viewBox="0 0 191 30" fill="none" xmlns="http://www.w3.org/2000/svg">
<g clip-path="url(#clip0_1_462)">
<path d="M17.0399 1.34344H34.7885C34.7777 1.55935 34.6966 1.76728 34.5557 1.94024C33.9548 2.88792 33.4141 3.87428 32.8238 4.82197C31.9886 6.18271 31.2075 7.56831 30.3589 8.92353C29.8211 9.89884 29.2143 10.8438 28.6405 11.8025C25.1917 11.8025 21.7429 11.8025 18.2941 11.8025C18.1139 11.8025 17.9351 11.8108 17.7549 11.8205C17.6047 12.1852 17.3553 12.5043 17.1541 12.8469C16.8912 13.2392 16.6779 13.6578 16.418 14.0501C16.1432 14.5779 15.7631 15.0503 15.4867 15.5767C14.916 16.4677 14.3827 17.3726 13.8239 18.2733C13.2411 19.1942 12.6713 20.1281 12.1146 21.0749C11.879 21.4104 11.6619 21.7567 11.4642 22.1124C10.2971 23.9801 9.16749 25.8644 7.99888 27.7308C7.89975 27.9314 7.76919 28.1176 7.61134 28.2833C5.61357 28.2709 3.6158 28.2833 1.61804 28.2833C1.37198 28.2876 1.12738 28.3192 0.889526 28.3773C0.889526 27.8689 1.25904 27.4614 1.50838 27.0345C1.8088 26.4612 2.20986 25.9293 2.51177 25.3546C4.90609 21.4147 7.27487 17.461 9.66168 13.5183C10.2024 12.6618 10.6666 11.7873 11.2103 10.9474C11.8893 9.8422 12.5216 8.71216 13.2291 7.61943C13.4544 7.16216 13.7579 6.74358 14.0057 6.29737C14.8859 4.8565 15.7496 3.40735 16.6268 1.96648C16.7309 1.74146 16.8701 1.53158 17.0399 1.34344Z" fill="#C7BDB3"/>
<path d="M37.6068 7.14432C38.7889 5.24481 39.9305 3.32457 41.1291 1.43335H47.54C47.6334 1.43769 47.7261 1.45112 47.8164 1.47341C47.6031 1.77043 47.4244 2.0854 47.2366 2.39485C45.6905 4.94687 44.1488 7.50027 42.6117 10.0551C41.9658 11.0953 41.365 12.159 40.7101 13.1937L40.6455 13.2145L40.6334 13.3443C37.6193 18.3176 34.6151 23.2945 31.621 28.2752C25.7358 28.2807 19.8501 28.2807 13.964 28.2752C14.299 27.6314 14.6955 27.0167 15.068 26.3909C16.7443 23.5561 18.4642 20.7462 20.1165 17.9114C23.7325 17.9059 27.3485 17.9059 30.9645 17.9114C33.1981 14.3334 35.3837 10.7278 37.6007 7.14432H37.6068Z" fill="#C7BDB3"/>
<path d="M103.769 1.36017V28.6026H108.902V9.44587L118.264 22.0628L127.552 9.14609V28.6026H132.834V1.36017H127.152L118.302 13.9356L109.352 1.36017H103.769Z" fill="#C7BDB3"/>
<path d="M79.7616 8.38629H83.1157V28.8319H79.7616V8.38629Z" fill="#C7BDB3"/>
<path d="M79.4729 0.811707H83.4039V4.24188H79.4729V0.811707Z" fill="#C7BDB3"/>
<path d="M89.5249 2.5274H93.0293V8.38619H99.9388V11.2417H93.0293V23.3875C93.0232 23.8555 93.1413 24.3178 93.3732 24.7344C93.9666 25.7705 95.5783 27 99.9388 25.5633V28.2102C99.9388 28.2102 95.9583 30.2824 92.3533 28.3953C92.3533 28.3953 90.5628 27.6963 89.8103 25.3367C89.6148 24.7047 89.5187 24.0501 89.5249 23.393V11.1961L86.5703 11.2417V8.38619H89.5489L89.5249 2.5274Z" fill="#C7BDB3"/>
<path d="M138.242 1.36017V28.7864H160.522V24.3657H143.675V17.0895H158.52V12.7379H143.649V5.80848H160.348V1.36017H138.242Z" fill="#C7BDB3"/>
<path d="M162.613 1.36017H168.959L176.244 10.989L183.472 1.36017H189.819L179.454 14.7355L190.464 28.7629H183.78L176.27 18.5179L168.396 28.7864H162.05L172.902 14.8571L162.613 1.36017Z" fill="#C7BDB3"/>
<path d="M69.4957 14.5572C69.4957 14.5572 74.403 12.8539 74.1025 7.94971C74.1025 7.94971 74.062 3.23339 68.288 1.77733C67.328 1.54076 66.3378 1.42367 65.3439 1.4292H51.4962L51.5338 28.6716H66.4419C66.4419 28.6716 75.166 28.499 75.7804 21.3499C75.7804 21.3499 76.4052 16.3531 69.4957 14.5572ZM55.0757 4.24186H63.9139C70.8475 4.21976 70.6478 8.70951 70.6478 8.70951C70.7514 13.832 64.3886 13.7284 64.3886 13.7284H55.0757V4.24186ZM65.8907 25.7927H55.0757V16.3076H65.416C72.3496 16.2841 72.1498 20.7738 72.1498 20.7738C72.2535 25.8963 65.8907 25.7927 65.8907 25.7927Z" fill="#C7BDB3"/>
</g>
<defs>
<clipPath id="clip0_1_462">
<rect width="189.575" height="28.3766" fill="white" transform="translate(0.889526 0.811707)"/>
</clipPath>
</defs>
</svg>
