<svg width="336" height="24" viewBox="0 0 336 24" fill="none" xmlns="http://www.w3.org/2000/svg">
<path fill-rule="evenodd" clip-rule="evenodd" d="M85.5448 18.25C87.5289 18.25 89.3477 17.45 90.6153 16.25C90.8909 15.95 91.4971 15.4 91.442 15.5L95.6858 19.65C93.2608 22.3 89.6232 24 85.4897 24C78.1595 24 72.2623 18.65 72.2623 12C72.2623 5.35 78.1595 0 85.4897 0C89.4028 0 92.9301 1.55 95.3551 4L91.1113 8.15L90.1193 7.25C88.9068 6.25 87.3084 5.65 85.5448 5.65C81.7419 5.65 78.6004 8.45 78.6004 11.95C78.6004 15.4 81.6868 18.25 85.5448 18.25ZM248.793 23.6C250.777 23.6 252.154 22.35 252.154 20.55C252.154 18.8 250.777 17.6 248.793 17.55C246.864 17.55 245.486 18.8 245.486 20.55C245.486 22.35 246.864 23.6 248.793 23.6ZM140.824 16.35C139.557 17.55 137.738 18.35 135.754 18.35C131.896 18.35 128.809 15.5 128.809 12.05C128.809 8.55 131.951 5.75 135.754 5.75C137.517 5.75 139.116 6.35 140.328 7.35L141.32 8.25L145.619 4C143.194 1.55 139.667 0 135.754 0C128.424 0 122.526 5.35 122.526 12C122.526 18.65 128.424 24 135.754 24C139.887 24 143.525 22.3 145.95 19.65L141.706 15.5C141.706 15.5 141.1 16.05 140.824 16.35ZM267.366 18.25C269.35 18.25 271.169 17.45 272.436 16.25C272.712 15.95 273.318 15.4 273.263 15.5L277.507 19.65C275.082 22.3 271.444 24 267.311 24C259.981 24 254.083 18.65 254.083 12C254.083 5.35 259.981 0 267.311 0C271.224 0 274.751 1.55 277.176 4L272.932 8.15L271.94 7.25C270.728 6.25 269.13 5.65 267.366 5.65C263.563 5.65 260.422 8.45 260.422 11.95C260.422 15.4 263.508 18.25 267.366 18.25ZM17.975 11.5C20.2347 10.6 21.8881 9.05 21.8881 6.35V6.3C21.8881 4.7 21.2819 3.5 20.2347 2.6C18.7466 1.2 16.542 0.5 13.3454 0.5H0.118073V23.5H13.4006C19.4631 23.5 22.9904 21.1 22.9904 17.15V17.1C22.9904 13.95 21.0614 12.4 17.975 11.5ZM7.17267 5.6H11.7471C13.8415 5.6 14.9437 6.3 14.9437 7.55V7.6C14.9437 8.95 13.7312 9.6 11.5818 9.6H7.17267V5.6ZM15.9909 16.3C15.9909 17.65 14.7784 18.4 12.629 18.4H7.17267V14.15H12.5187C14.8886 14.15 15.9358 14.95 15.9358 16.2V16.3H15.9909ZM25.195 0.5H32.2495V17.95H43.6581V23.5H25.195V0.5ZM165.35 9.1H156.311V0.5H149.257V23.55L156.311 23.5V14.75H165.35V23.5H172.404V0.5H165.35V9.1ZM186.238 0.5H192.962L203.709 23.5H196.214L194.395 19.4H184.695L182.876 23.5H175.546L186.238 0.5ZM189.49 8L186.679 14.5H192.301L189.49 8ZM213.905 0.5H206.851V23.55H213.905V0.5ZM234.298 12.7V0.55H241.352V23.55H235.124L224.267 10.9V23.55H217.212V0.5L223.826 0.55L234.298 12.7ZM122.637 0.5H114.314L105.551 9.85V0.5H98.4966V23.55H105.551V17.6L108.142 15L115.251 23.55H123.629L112.716 10.4L122.637 0.5ZM44.2093 12C44.2093 5.35 50.1065 0 57.4367 0C64.7117 0 70.664 5.35 70.664 12C70.664 18.65 64.7668 24 57.4367 24C50.1065 24 44.2093 18.65 44.2093 12ZM50.4923 12C50.4923 15.45 53.5787 18.3 57.4367 18.3C61.2946 18.3 64.381 15.5 64.381 12C64.381 8.55 61.2946 5.7 57.4367 5.7C53.6338 5.7 50.4923 8.5 50.4923 12ZM291.341 0C284.01 0 278.113 5.35 278.113 12C278.113 18.65 284.01 24 291.341 24C298.671 24 304.568 18.65 304.568 12C304.568 5.35 298.671 0 291.341 0ZM291.341 18.3C287.483 18.3 284.396 15.45 284.396 12C284.396 8.5 287.538 5.7 291.341 5.7C295.199 5.7 298.285 8.55 298.285 12C298.34 15.5 295.199 18.3 291.341 18.3ZM328.598 9.85L323.527 21.15H318.622L313.552 9.85V23.45H306.938V0.5H314.984L321.102 13.2L327.22 0.5H335.211V23.45H328.598V9.85Z" fill="#C7BDB3"/>
</svg>
