<svg width="163" height="34" viewBox="0 0 163 34" fill="none" xmlns="http://www.w3.org/2000/svg">
<path fill-rule="evenodd" clip-rule="evenodd" d="M13.111 29.3397C14.37 29.3397 15.5334 29.1255 16.6362 28.7224C16.6457 28.7425 18.8903 32.0057 18.9226 32.0284C16.8907 33.0502 14.7673 33.5 12.4459 33.5C5.54497 33.5 0.535919 29.2452 0.535919 22.453C0.535919 15.6116 5.8008 11.3568 12.4459 11.3568C14.8117 11.3568 16.6766 11.8368 18.555 12.7767C18.3477 13.0993 16.4141 16.171 16.4073 16.1836C15.2932 15.7688 14.104 15.5592 12.905 15.5662C8.81566 15.5662 5.6473 18.0054 5.6473 22.453C5.6473 26.6611 8.71332 29.3397 13.111 29.3397ZM30.5161 11.3568C37.3147 11.3568 42.2214 15.8535 42.2214 22.453C42.2214 29.0046 37.3147 33.5 30.5161 33.5C23.7701 33.5 18.8634 29.0058 18.8634 22.453C18.8634 15.8535 23.7701 11.3568 30.5161 11.3568ZM30.5161 15.4226C26.7351 15.4226 23.9734 18.1491 23.9734 22.453C23.9734 26.7103 26.7338 29.4355 30.5175 29.4355C34.4022 29.4355 37.1114 26.7103 37.1114 22.453C37.1114 18.1491 34.4022 15.4226 30.5161 15.4226ZM45.4423 33.0225V11.8343H50.5012V33.0225H45.4423ZM44.7771 5.3293C44.7771 3.70399 46.261 2.41383 47.9468 2.41383C49.634 2.41383 51.1152 3.70399 51.1152 5.33056C51.1152 7.005 49.634 8.3443 47.9468 8.3443C46.261 8.3443 44.7771 7.005 44.7771 5.33056V5.3293ZM54.9164 13.1749C58.0848 12.0271 61.9721 11.3568 65.2927 11.3568C71.0692 11.3568 74.7493 13.413 74.7493 19.3913V33.0225H69.7402V19.8222C69.7402 16.7619 67.6962 15.6607 64.8833 15.6607C63.0938 15.6607 61.307 15.9001 59.9766 16.2831V33.0225H54.9164V13.1749ZM78.9867 0.5H84.0456V12.4101C85.1188 11.8834 87.214 11.3568 89.2068 11.3568C95.7509 11.3568 100.656 15.2777 100.656 22.0699C100.656 28.9088 95.8021 33.5 87.42 33.5C84.5449 33.4922 81.6926 33.0234 78.9867 32.1141V0.5ZM84.0456 29.0058C85.0165 29.2918 86.2943 29.4342 87.5721 29.4342C92.223 29.4342 95.5462 27.0441 95.5462 22.1644C95.5462 18.052 92.429 15.6128 88.5955 15.6128C86.6027 15.6128 85.0676 16.0916 84.0443 16.6182L84.0456 29.0058ZM115.274 18.8168C115.274 16.5212 113.433 15.4704 110.929 15.4704C108.322 15.4704 106.278 16.1873 104.387 17.1915V13.0778C106.38 12.0271 108.935 11.3568 111.748 11.3568C116.704 11.3568 120.231 13.2694 120.231 18.5774V32.5916C118.084 33.117 115.02 33.4534 112.464 33.4534C106.585 33.4534 102.291 31.7789 102.291 26.9963C102.291 22.6924 106.225 20.5883 112.768 20.5883H115.273L115.274 18.8168ZM115.274 23.7431H113.128C109.6 23.7431 107.3 24.7007 107.3 26.8526C107.3 29.0525 109.448 29.913 112.514 29.913C113.281 29.913 114.354 29.8172 115.274 29.6736V23.7431ZM123.911 27.2835C126.007 28.7652 128.51 29.6736 130.81 29.6736C133.06 29.6736 134.543 28.9567 134.543 27.2835C134.543 25.5599 133.214 24.9388 130.301 24.2219C125.598 23.2177 123.604 21.4488 123.604 17.766C123.604 13.4609 127.08 11.3568 131.68 11.3568C134.236 11.3568 136.28 11.8834 138.17 12.9821V17.3351C136.177 15.9971 134.236 15.1832 131.834 15.1832C129.636 15.1832 128.461 16.1873 128.461 17.5745C128.461 18.9604 129.43 19.6786 132.038 20.3464C137.202 21.3997 139.449 23.219 139.449 27.0441C139.449 31.4917 135.821 33.5 130.914 33.5C128.256 33.5 125.598 32.8322 123.912 31.7789L123.911 27.2835ZM146.376 23.505V23.6008C146.683 27.378 150.157 29.4342 153.683 29.4342C156.802 29.4342 159.052 28.7652 161.299 27.378V31.5408C159.255 32.8789 156.239 33.5 153.328 33.5C146.274 33.5 141.469 29.2918 141.469 22.5966C141.469 15.8535 146.17 11.358 152.407 11.358C159 11.358 162.118 15.3268 162.118 21.1124V23.5063L146.376 23.505ZM157.364 20.4434C157.263 17.1424 155.526 15.3268 152.253 15.3268C149.34 15.3268 147.193 17.2406 146.529 20.4446L157.364 20.4434Z" fill="#C7BDB3"/>
</svg>
