<svg width="84" height="77" viewBox="0 0 84 77" fill="none" xmlns="http://www.w3.org/2000/svg">
<rect width="84" height="77" rx="12" fill="#E6FDF6"/>
<g clip-path="url(#clip0_1_400)">
<path d="M58 53.1667C58 53.5204 57.8596 53.8595 57.6095 54.1096C57.3595 54.3596 57.0203 54.5001 56.6667 54.5001H27.3334C26.9798 54.5001 26.6406 54.3596 26.3906 54.1096C26.1405 53.8595 26 53.5204 26 53.1667C26 52.8131 26.1405 52.474 26.3906 52.2239C26.6406 51.9739 26.9798 51.8334 27.3334 51.8334H56.6667C57.0203 51.8334 57.3595 51.9739 57.6095 52.2239C57.8596 52.474 58 52.8131 58 53.1667ZM26.388 33.9027C26.1007 33.3698 25.9676 32.7674 26.0037 32.1631C26.0397 31.5587 26.2435 30.9764 26.592 30.4814C27.1617 29.6456 27.9246 28.9595 28.816 28.4814L38.8174 23.2761C39.8004 22.7649 40.8921 22.498 42 22.498C43.108 22.498 44.1997 22.7649 45.1827 23.2761L55.1827 28.4854C56.0741 28.9635 56.837 29.6496 57.4067 30.4854C57.7553 30.9804 57.959 31.5627 57.9951 32.1671C58.0311 32.7714 57.898 33.3738 57.6107 33.9067C57.3014 34.4918 56.8375 34.9809 56.2695 35.3206C55.7015 35.6603 55.0512 35.8377 54.3894 35.8334H54V46.5001H55.3334C55.687 46.5001 56.0261 46.6406 56.2762 46.8906C56.5262 47.1406 56.6667 47.4798 56.6667 47.8334C56.6667 48.187 56.5262 48.5262 56.2762 48.7762C56.0261 49.0263 55.687 49.1667 55.3334 49.1667H28.6667C28.3131 49.1667 27.9739 49.0263 27.7239 48.7762C27.4739 48.5262 27.3334 48.187 27.3334 47.8334C27.3334 47.4798 27.4739 47.1406 27.7239 46.8906C27.9739 46.6406 28.3131 46.5001 28.6667 46.5001H30V35.8334H29.6107C28.9483 35.8375 28.2974 35.6597 27.7291 35.3192C27.1608 34.9788 26.6969 34.4888 26.388 33.9027ZM32.6667 46.5001H36.6667V35.8334H32.6667V46.5001ZM39.3334 35.8334V46.5001H44.6667V35.8334H39.3334ZM51.3334 35.8334H47.3334V46.5001H51.3334V35.8334ZM28.7507 32.6667C28.8344 32.821 28.9589 32.9492 29.1106 33.0374C29.2622 33.1256 29.4353 33.1703 29.6107 33.1667H54.3894C54.5648 33.1703 54.7378 33.1256 54.8895 33.0374C55.0412 32.9492 55.1657 32.821 55.2494 32.6667C55.3103 32.5648 55.3398 32.4472 55.3341 32.3286C55.3284 32.21 55.2878 32.0957 55.2174 32.0001C54.8943 31.52 54.4603 31.1248 53.952 30.8481L43.952 25.6387C43.3494 25.326 42.6804 25.1627 42.0014 25.1627C41.3224 25.1627 40.6534 25.326 40.0507 25.6387L30.0507 30.8481C29.5427 31.1257 29.1087 31.5212 28.7854 32.0014C28.7148 32.0966 28.6739 32.2105 28.6677 32.3288C28.6616 32.4472 28.6904 32.5647 28.7507 32.6667Z" fill="#236E57"/>
</g>
<defs>
<clipPath id="clip0_1_400">
<rect width="32" height="32" fill="white" transform="translate(26 22.5)"/>
</clipPath>
</defs>
</svg>
