<svg width="49" height="49" viewBox="0 0 49 49" fill="none" xmlns="http://www.w3.org/2000/svg">
<g clip-path="url(#clip0_1_558)">
<path fill-rule="evenodd" clip-rule="evenodd" d="M0.643799 24.0014C0.643799 10.7375 11.4317 -0.0512695 24.6893 -0.0512695C37.947 -0.0512695 48.7349 10.7375 48.7349 24.0014C48.7349 37.2653 37.947 48.054 24.6893 48.054C11.4317 48.054 0.643799 37.2653 0.643799 24.0014ZM2.24833 24.0014C2.24833 36.3802 12.3149 46.4519 24.6893 46.4519C37.0637 46.4519 47.1303 36.3802 47.1303 24.0014C47.1303 11.6225 37.0637 1.55084 24.6893 1.55084C12.3149 1.55084 2.24833 11.6225 2.24833 24.0014ZM25.9371 10.5003H29.938C30.0396 10.4867 30.143 10.4967 30.2401 10.5296C30.3372 10.5625 30.4254 10.6173 30.4978 10.6899C30.5702 10.7625 30.6249 10.8509 30.6576 10.9481C30.6903 11.0453 30.7001 11.1487 30.6863 11.2504V15.7507C30.7387 15.9697 30.6488 16.1767 30.4928 16.3282C30.3812 16.4366 30.2359 16.4544 30.0859 16.4728C30.0262 16.4801 29.9658 16.4875 29.9065 16.5007H27.2238C27.1007 16.4934 26.9947 16.4842 26.9029 16.4762C26.3317 16.4264 26.3144 16.4249 26.1891 17.2508L26.1846 19.5009H29.938C30.0396 19.4873 30.1431 19.4974 30.2402 19.5303C30.3374 19.5632 30.4256 19.618 30.4982 19.6906C30.5707 19.7631 30.6255 19.8514 30.6584 19.9486C30.6913 20.0458 30.7013 20.1493 30.6877 20.251V24.7513C30.7013 24.853 30.6913 24.9564 30.6584 25.0536C30.6255 25.1508 30.5707 25.2391 30.4982 25.3117C30.4256 25.3842 30.3374 25.4391 30.2402 25.472C30.1431 25.5049 30.0396 25.5149 29.938 25.5013H26.1891L26.1861 36.7521C26.327 37.1946 25.9686 37.5532 25.5262 37.5022H20.9451C20.8433 37.5153 20.7399 37.5049 20.6427 37.4719C20.5455 37.4389 20.4572 37.3842 20.3844 37.3118C20.3116 37.2394 20.2564 37.1514 20.2228 37.0544C20.1892 36.9574 20.1783 36.854 20.1908 36.7521V25.5013H17.9414C17.8398 25.5149 17.7364 25.5049 17.6392 25.472C17.542 25.4391 17.4538 25.3842 17.3812 25.3117C17.3087 25.2391 17.2539 25.1508 17.221 25.0536C17.1881 24.9564 17.1781 24.853 17.1917 24.7513V20.251C17.1781 20.1493 17.1881 20.0458 17.221 19.9486C17.2539 19.8514 17.3087 19.7631 17.3812 19.6906C17.4538 19.618 17.542 19.5632 17.6392 19.5303C17.7364 19.4974 17.8398 19.4873 17.9414 19.5009H20.1908V17.0183C20.1908 13.604 20.8416 10.4493 25.9371 10.5003ZM29.1342 14.9166V12.0514H25.9356C22.3682 12.0514 21.6889 13.6535 21.6889 17.0168V20.2495C21.6889 20.4625 21.6619 20.6665 21.5119 20.818C21.4374 20.8924 21.349 20.9513 21.2518 20.9914C21.1545 21.0316 21.0503 21.0522 20.9451 21.052H18.6912V23.9502H20.9451C21.3889 23.9502 21.6904 24.3088 21.6904 24.7513V36.0021H24.7255L24.727 24.7498C24.7274 24.5372 24.8121 24.3334 24.9625 24.1833C25.1129 24.0331 25.3167 23.9487 25.5292 23.9487H29.1882V21.0505H25.5262C25.421 21.0505 25.3167 21.0298 25.2195 20.9894C25.1222 20.9491 25.0339 20.8899 24.9595 20.8154C24.8851 20.7408 24.8262 20.6523 24.786 20.555C24.7459 20.4576 24.7253 20.3533 24.7255 20.248L24.7315 17.4038C24.7315 16.1092 24.9264 14.8446 27.2552 14.8446L29.1342 14.9166Z" fill="#5C5C5C"/>
</g>
<defs>
<clipPath id="clip0_1_558">
<rect width="47.9861" height="48.0033" fill="white" transform="translate(0.696533)"/>
</clipPath>
</defs>
</svg>
