<svg width="182" height="59" viewBox="0 0 182 59" fill="none" xmlns="http://www.w3.org/2000/svg">
<rect x="1" y="1.09082" width="180" height="56" rx="6" fill="#0D0D0D"/>
<path d="M38.2771 33.6496C41.79 31.7208 44.4532 30.251 44.6827 30.1368C45.4171 29.7462 46.1754 28.7127 44.6827 27.9098C44.2008 27.6574 41.6061 26.2333 38.2771 24.397L33.6622 29.0576L38.2771 33.6496Z" fill="#FFD900"/>
<path d="M33.6624 29.0574L18.968 43.8671C19.3129 43.9128 19.7023 43.8214 20.1614 43.569C21.1253 43.0414 31.3429 37.4615 38.2773 33.6506L33.6624 29.0574Z" fill="#F43249"/>
<path d="M33.6624 29.0575L38.2773 24.4198C38.2773 24.4198 21.195 15.0975 20.1614 14.547C19.772 14.3163 19.3358 14.2478 18.9452 14.3163L33.6624 29.0575Z" fill="#00EE76"/>
<path d="M33.6622 29.0579L18.945 14.3167C18.3477 14.4548 17.8429 14.9824 17.8429 16.0617C17.8429 17.7838 17.8429 40.6985 17.8429 42.1226C17.8429 43.1104 18.2335 43.8219 18.9678 43.8904L33.6622 29.0579Z" fill="#00D3FF"/>
<path d="M62.1428 16.5665C62.1428 17.3665 61.9054 18.0038 61.4308 18.4785C60.8974 19.0438 60.1961 19.3265 59.3268 19.3265C58.4948 19.3265 57.7908 19.0385 57.2148 18.4625C56.6388 17.8865 56.3508 17.1772 56.3508 16.3345C56.3508 15.4918 56.6388 14.7825 57.2148 14.2065C57.7908 13.6305 58.4948 13.3425 59.3268 13.3425C59.7481 13.3425 60.1454 13.4172 60.5188 13.5665C60.8921 13.7158 61.1988 13.9265 61.4388 14.1985L60.9108 14.7265C60.7348 14.5132 60.5054 14.3478 60.2228 14.2305C59.9454 14.1078 59.6468 14.0465 59.3268 14.0465C58.7028 14.0465 58.1748 14.2625 57.7428 14.6945C57.3161 15.1318 57.1028 15.6785 57.1028 16.3345C57.1028 16.9905 57.3161 17.5372 57.7428 17.9745C58.1748 18.4065 58.7028 18.6225 59.3268 18.6225C59.8974 18.6225 60.3721 18.4625 60.7508 18.1425C61.1294 17.8225 61.3481 17.3825 61.4068 16.8225H59.3268V16.1345H62.1028C62.1294 16.2838 62.1428 16.4278 62.1428 16.5665ZM66.509 13.4705V14.1745H63.901V15.9905H66.253V16.6785H63.901V18.4945H66.509V19.1985H63.165V13.4705H66.509ZM69.581 14.1745V19.1985H68.845V14.1745H67.245V13.4705H71.181V14.1745H69.581ZM74.6991 19.1985H73.9631V13.4705H74.6991V19.1985ZM76.7177 19.1985H75.9817V13.4705H76.8777L79.6617 17.9265H79.6937L79.6617 16.8225V13.4705H80.3977V19.1985H79.6297L76.7177 14.5265H76.6857L76.7177 15.6305V19.1985ZM89.0176 16.3345C89.0176 17.1825 88.7349 17.8918 88.1696 18.4625C87.5989 19.0385 86.9002 19.3265 86.0736 19.3265C85.2416 19.3265 84.5429 19.0385 83.9776 18.4625C83.4122 17.8918 83.1296 17.1825 83.1296 16.3345C83.1296 15.4865 83.4122 14.7772 83.9776 14.2065C84.5429 13.6305 85.2416 13.3425 86.0736 13.3425C86.9056 13.3425 87.6042 13.6332 88.1696 14.2145C88.7349 14.7852 89.0176 15.4918 89.0176 16.3345ZM83.8816 16.3345C83.8816 16.9958 84.0896 17.5425 84.5056 17.9745C84.9269 18.4065 85.4496 18.6225 86.0736 18.6225C86.6976 18.6225 87.2176 18.4065 87.6336 17.9745C88.0549 17.5478 88.2656 17.0012 88.2656 16.3345C88.2656 15.6678 88.0549 15.1212 87.6336 14.6945C87.2176 14.2625 86.6976 14.0465 86.0736 14.0465C85.4496 14.0465 84.9269 14.2625 84.5056 14.6945C84.0896 15.1265 83.8816 15.6732 83.8816 16.3345ZM90.7501 19.1985H90.0141V13.4705H90.9101L93.6941 17.9265H93.7261L93.6941 16.8225V13.4705H94.4301V19.1985H93.6621L90.7501 14.5265H90.7181L90.7501 15.6305V19.1985Z" fill="white"/>
<path d="M86.5696 28.8892C83.9292 28.8892 81.748 30.9322 81.748 33.7336C81.748 36.5121 83.9064 38.5781 86.5696 38.5781C89.2328 38.5781 91.3912 36.535 91.3912 33.7336C91.3912 30.9322 89.2328 28.8892 86.5696 28.8892ZM86.5696 36.6503C85.1226 36.6503 83.8607 35.4329 83.8607 33.7119C83.8607 31.9669 85.1238 30.7735 86.5696 30.7735C88.0154 30.7735 89.2785 31.9669 89.2785 33.7119C89.2785 35.4329 88.0154 36.6503 86.5696 36.6503ZM76.0767 28.8892C73.4135 28.8892 71.2551 30.9322 71.2551 33.7336C71.2551 36.5121 73.4135 38.5781 76.0767 38.5781C78.7399 38.5781 80.8983 36.535 80.8983 33.7336C80.8983 30.9322 78.7399 28.8892 76.0767 28.8892ZM76.0767 36.6503C74.6297 36.6503 73.3678 35.4329 73.3678 33.7119C73.3678 31.9669 74.6309 30.7735 76.0767 30.7735C77.5236 30.7735 78.7856 31.9669 78.7856 33.7119C78.7856 35.4329 77.5453 36.6503 76.0767 36.6503ZM63.6092 30.3818V32.4249H68.4765C68.3383 33.5726 67.9489 34.4223 67.3745 34.9967C66.663 35.7082 65.561 36.4893 63.6092 36.4893C60.6012 36.4893 58.2829 34.0557 58.2829 31.0476C58.2829 28.0395 60.6023 25.5602 63.6092 25.5602C65.2389 25.5602 66.4106 26.2031 67.2831 27.0299L68.7289 25.583C67.5115 24.4124 65.8819 23.5171 63.6092 23.5171C59.4991 23.5171 56.0548 26.8918 56.0548 31.0019C56.0548 35.112 59.4991 38.4867 63.6092 38.4867C65.8362 38.4867 67.4898 37.7524 68.8214 36.374C70.1759 35.0195 70.5893 33.1135 70.5893 31.5752C70.5893 31.0933 70.5436 30.657 70.4739 30.2893L63.6092 30.3818ZM114.627 31.9658C114.236 30.8866 112.997 28.8892 110.517 28.8892C108.036 28.8892 105.993 30.8409 105.993 33.7336C105.993 36.4425 108.036 38.5781 110.746 38.5781C112.95 38.5781 114.213 37.2236 114.741 36.4425L113.111 35.3404C112.56 36.1444 111.825 36.672 110.746 36.672C109.667 36.672 108.91 36.1901 108.427 35.2023L114.832 32.5162L114.627 31.9658ZM108.106 33.5966C108.06 31.7362 109.553 30.7724 110.608 30.7724C111.458 30.7724 112.146 31.1858 112.399 31.8059L108.106 33.5966ZM102.894 38.2572H105.006V24.0675H102.894V38.2572ZM99.4504 29.9684H99.3819C98.9 29.3939 98.0046 28.8892 96.8558 28.8892C94.445 28.8892 92.2637 31.0247 92.2637 33.7336C92.2637 36.4425 94.4678 38.5552 96.8558 38.5552C98.0035 38.5552 98.8988 38.0505 99.3819 37.4532H99.4504V38.1418C99.4504 40.0022 98.4626 40.9889 96.8786 40.9889C95.5927 40.9889 94.7887 40.0478 94.4678 39.2667L92.6314 40.0478C93.159 41.3338 94.5603 42.9177 96.8786 42.9177C99.3579 42.9177 101.448 41.448 101.448 37.8894V29.1872H99.4504V29.9684ZM97.0396 36.6503C95.5927 36.6503 94.3764 35.4329 94.3764 33.7348C94.3764 32.0366 95.5938 30.7963 97.0396 30.7963C98.4637 30.7963 99.6115 32.0366 99.6115 33.7348C99.6103 35.4101 98.4626 36.6503 97.0396 36.6503ZM124.477 24.0675H119.426V38.2572H121.538V32.8839H124.477C126.819 32.8839 129.114 31.1846 129.114 28.4757C129.114 25.7669 126.819 24.0675 124.477 24.0675ZM124.545 30.9105H121.56V26.0421H124.545C126.106 26.0421 127.025 27.3509 127.025 28.4757C127.003 29.5778 126.108 30.9105 124.545 30.9105ZM137.541 28.8663C136.026 28.8663 134.442 29.5321 133.799 31.0476L135.659 31.8287C136.073 31.0476 136.807 30.7952 137.588 30.7952C138.69 30.7952 139.792 31.461 139.815 32.6316V32.7697C139.425 32.5402 138.622 32.2182 137.611 32.2182C135.591 32.2182 133.547 33.343 133.547 35.4101C133.547 37.3161 135.2 38.5324 137.037 38.5324C138.461 38.5324 139.241 37.8894 139.723 37.1323H139.791V38.2343H141.834V32.7926C141.811 30.2904 139.952 28.8663 137.541 28.8663ZM137.289 36.6275C136.6 36.6275 135.635 36.2826 135.635 35.4341C135.635 34.332 136.829 33.9186 137.862 33.9186C138.781 33.9186 139.217 34.1253 139.791 34.4006C139.63 35.7093 138.505 36.6275 137.289 36.6275ZM149.205 29.1884L146.794 35.3187H146.726L144.223 29.1884H141.951L145.716 37.7752L143.58 42.574H145.785L151.547 29.1884H149.205ZM130.286 38.2572H132.399V24.0675H130.286V38.2572Z" fill="#EDEDED"/>
<rect x="1" y="1.09082" width="180" height="56" rx="6" stroke="#B8B8BA" stroke-width="2"/>
</svg>
