<svg width="84" height="77" viewBox="0 0 84 77" fill="none" xmlns="http://www.w3.org/2000/svg">
<rect width="84" height="77" rx="12" fill="#EBF3FE"/>
<g clip-path="url(#clip0_1_437)">
<path d="M50.7747 25.3533L42.4214 22.568C42.1478 22.4769 41.8522 22.4769 41.5787 22.568L33.2254 25.3533C31.8972 25.7945 30.7419 26.643 29.9235 27.7782C29.1052 28.9135 28.6654 30.2778 28.6667 31.6773V38.4999C28.6667 48.5839 40.9334 54.1533 41.4587 54.3853C41.6291 54.461 41.8135 54.5001 42 54.5001C42.1865 54.5001 42.3709 54.461 42.5414 54.3853C43.0667 54.1533 55.3333 48.5839 55.3333 38.4999V31.6773C55.3346 30.2778 54.8949 28.9135 54.0765 27.7782C53.2581 26.643 52.1028 25.7945 50.7747 25.3533ZM52.6667 38.4999C52.6667 45.7733 44.2414 50.5439 42 51.6853C39.756 50.5479 31.3334 45.7919 31.3334 38.4999V31.6773C31.3334 30.8377 31.5977 30.0193 32.0888 29.3383C32.5798 28.6572 33.2727 28.1479 34.0694 27.8826L42 25.2386L49.9307 27.8826C50.7273 28.1479 51.4202 28.6572 51.9113 29.3383C52.4023 30.0193 52.6666 30.8377 52.6667 31.6773V38.4999Z" fill="#0065ED"/>
<path d="M46.4 33.5666L40.816 39.1666L37.824 36.0466C37.7039 35.9154 37.5588 35.8094 37.3971 35.7351C37.2355 35.6608 37.0606 35.6196 36.8828 35.6139C36.705 35.6082 36.5278 35.6381 36.3617 35.702C36.1957 35.7658 36.044 35.8622 35.9158 35.9855C35.7876 36.1089 35.6853 36.2566 35.6151 36.4201C35.5449 36.5835 35.508 36.7594 35.5068 36.9373C35.5056 37.1152 35.54 37.2916 35.608 37.456C35.6759 37.6204 35.7761 37.7696 35.9027 37.8946L38.9773 41.0946C39.2066 41.3423 39.4838 41.5409 39.792 41.6784C40.1003 41.8159 40.4332 41.8895 40.7707 41.8946H40.8147C41.1454 41.8957 41.4731 41.8311 41.7786 41.7045C42.0842 41.578 42.3616 41.392 42.5947 41.1573L48.2907 35.4613C48.4151 35.3372 48.5138 35.1897 48.5812 35.0274C48.6487 34.8651 48.6835 34.6911 48.6836 34.5154C48.6838 34.3396 48.6494 34.1656 48.5823 34.0031C48.5152 33.8407 48.4168 33.6931 48.2927 33.5686C48.1685 33.4442 48.0211 33.3455 47.8588 33.2781C47.6965 33.2106 47.5225 33.1758 47.3467 33.1757C47.171 33.1755 46.9969 33.2099 46.8345 33.277C46.672 33.3441 46.5244 33.4425 46.4 33.5666Z" fill="#0065ED"/>
</g>
<defs>
<clipPath id="clip0_1_437">
<rect width="32" height="32" fill="white" transform="translate(26 22.5)"/>
</clipPath>
</defs>
</svg>
