<svg width="49" height="49" viewBox="0 0 49 49" fill="none" xmlns="http://www.w3.org/2000/svg">
<g clip-path="url(#clip0_1_552)">
<path fill-rule="evenodd" clip-rule="evenodd" d="M0.604004 24.0019C0.604004 10.738 11.3919 -0.0507812 24.6495 -0.0507812C37.9072 -0.0507812 48.6951 10.738 48.6951 24.0019C48.6951 37.2658 37.9072 48.0545 24.6495 48.0545C11.3919 48.0545 0.604004 37.2658 0.604004 24.0019ZM2.20854 24.0019C2.20854 36.3807 12.2751 46.4524 24.6495 46.4524C37.0239 46.4524 47.0905 36.3807 47.0905 24.0019C47.0905 11.623 37.0239 1.55133 24.6495 1.55133C12.2751 1.55133 2.20854 11.623 2.20854 24.0019ZM24.647 13.5824C28.039 13.5824 28.4413 13.5952 29.7806 13.6566C30.5861 13.6661 31.3839 13.8141 32.1394 14.094C32.6874 14.3055 33.1851 14.6294 33.6005 15.0449C34.0158 15.4604 34.3396 15.9583 34.5511 16.5065C34.8308 17.2622 34.9787 18.0604 34.9883 18.8662C35.0497 20.2059 35.0624 20.6083 35.0624 24.0027C35.0624 27.397 35.0497 27.7973 34.9883 29.1371C34.9787 29.9429 34.8308 30.741 34.5511 31.4967C34.3396 32.0449 34.0158 32.5428 33.6005 32.9583C33.1851 33.3738 32.6874 33.6978 32.1394 33.9093C31.3839 34.1891 30.5861 34.3371 29.7806 34.3467C28.4413 34.4081 28.039 34.4208 24.647 34.4208C21.2549 34.4208 20.8526 34.4081 19.5134 34.3467C18.7079 34.3371 17.91 34.1891 17.1546 33.9093C16.6065 33.6978 16.1088 33.3738 15.6935 32.9583C15.2781 32.5428 14.9543 32.0449 14.7429 31.4967C14.4631 30.741 14.3152 29.9429 14.3056 29.1371C14.2442 27.7973 14.2315 27.3949 14.2315 24.0016C14.2315 20.6083 14.2442 20.2059 14.3056 18.8662C14.3152 18.0604 14.4631 17.2622 14.7429 16.5065C14.9543 15.9583 15.2781 15.4604 15.6935 15.0449C16.1088 14.6294 16.6065 14.3055 17.1546 14.094C17.91 13.8141 18.7079 13.6661 19.5134 13.6566C20.8526 13.5952 21.2549 13.5824 24.647 13.5824ZM24.647 11.2927C21.1967 11.2927 20.7637 11.3076 19.4085 11.369C18.3549 11.3903 17.3125 11.5901 16.3256 11.9599C15.4816 12.2865 14.715 12.7858 14.0751 13.4259C13.4352 14.0661 12.936 14.8329 12.6096 15.6773C12.2398 16.6649 12.04 17.708 12.0189 18.7624C11.9574 20.118 11.9426 20.549 11.9426 24.0016C11.9426 27.4542 11.9574 27.8863 12.0189 29.2419C12.0401 30.2959 12.2399 31.3387 12.6096 32.3259C12.936 33.1703 13.4352 33.9372 14.0751 34.5773C14.715 35.2174 15.4816 35.7168 16.3256 36.0433C17.3128 36.4133 18.3556 36.6131 19.4096 36.6343C20.7647 36.6957 21.1967 36.7105 24.647 36.7105C28.0973 36.7105 28.5303 36.6957 29.8854 36.6343C30.9394 36.6131 31.9822 36.4133 32.9694 36.0433C33.8134 35.7168 34.58 35.2174 35.2199 34.5773C35.8598 33.9372 36.359 33.1703 36.6854 32.3259C37.0549 31.3383 37.2543 30.2952 37.2751 29.2409C37.3365 27.8852 37.3513 27.4542 37.3513 24.0016C37.3513 20.549 37.3365 20.1169 37.2751 18.7613C37.2538 17.7073 37.0541 16.6645 36.6843 15.6773C36.3579 14.8329 35.8588 14.0661 35.2189 13.4259C34.5789 12.7858 33.8124 12.2865 32.9683 11.9599C31.981 11.5903 30.9383 11.3909 29.8843 11.37C28.5292 11.3065 28.0983 11.2927 24.647 11.2927ZM32.955 17.2175C32.955 18.0597 32.2722 18.7424 31.43 18.7424C30.5878 18.7424 29.905 18.0597 29.905 17.2175C29.905 16.3753 30.5878 15.6925 31.43 15.6925C32.2722 15.6925 32.955 16.3753 32.955 17.2175ZM21.0246 18.5751C22.0974 17.8581 23.3587 17.4753 24.6489 17.4753C26.3791 17.4753 28.0384 18.1629 29.2619 19.3866C30.4853 20.6104 31.1726 22.2702 31.1726 24.0009C31.1726 25.2915 30.79 26.5532 30.0732 27.6263C29.3563 28.6994 28.3375 29.5358 27.1454 30.0298C25.9534 30.5237 24.6417 30.6529 23.3762 30.4011C22.1108 30.1493 20.9483 29.5278 20.036 28.6152C19.1236 27.7026 18.5023 26.5398 18.2506 25.274C17.9989 24.0082 18.1281 22.6961 18.6218 21.5037C19.1156 20.3113 19.9518 19.2921 21.0246 18.5751ZM22.2962 27.523C22.9926 27.9885 23.8114 28.2369 24.6489 28.2369C25.7721 28.2369 26.8492 27.7906 27.6434 26.9962C28.4375 26.2018 28.8837 25.1244 28.8837 24.0009C28.8837 23.1631 28.6353 22.3441 28.17 21.6475C27.7047 20.9509 27.0433 20.408 26.2695 20.0874C25.4957 19.7667 24.6442 19.6828 23.8228 19.8463C23.0013 20.0097 22.2467 20.4132 21.6545 21.0056C21.0622 21.598 20.6589 22.3528 20.4955 23.1745C20.3321 23.9962 20.416 24.8479 20.7365 25.622C21.057 26.396 21.5998 27.0576 22.2962 27.523Z" fill="#5C5C5C"/>
</g>
<defs>
<clipPath id="clip0_1_552">
<rect width="47.9861" height="48.0033" fill="white" transform="translate(0.654785)"/>
</clipPath>
</defs>
</svg>
