<svg width="76" height="29" viewBox="0 0 76 29" fill="none" xmlns="http://www.w3.org/2000/svg">
<path d="M17.52 13.48C19.16 12.16 20.16 10.28 20.16 7.88C20.16 3.2 16.36 -1.90735e-06 11.64 -1.90735e-06H0.6V28H12.48C17.32 28 21.2 24.68 21.2 19.88C21.2 16.96 19.76 14.76 17.52 13.48ZM11.64 5.16C13.4 5.16 14.64 6.48 14.64 8.24C14.64 10 13.36 11.32 11.64 11.32H6.12V5.16H11.64ZM12.48 22.84H6.12V16.24H12.48C14.36 16.24 15.72 17.64 15.72 19.52C15.72 21.44 14.36 22.84 12.48 22.84ZM54.0419 -1.90735e-06H33.4419V5.28H40.9619V28H46.4819V5.28H54.0419V-1.90735e-06ZM68.0034 7.44C65.3234 7.44 63.2434 8.44 62.0434 10.24V-1.90735e-06H56.8834V28H62.0434V17.2C62.0434 13.72 63.9234 12.24 66.4434 12.24C68.7634 12.24 70.4034 13.64 70.4034 16.36V28H75.5634V15.72C75.5634 10.4 72.2434 7.44 68.0034 7.44Z" fill="#236E57"/>
<path d="M27.5788 28.52C29.4588 28.52 30.9788 27 30.9788 25.12C30.9788 23.24 29.4588 21.72 27.5788 21.72C25.6988 21.72 24.1788 23.24 24.1788 25.12C24.1788 27 25.6988 28.52 27.5788 28.52Z" fill="#F05830"/>
</svg>
