<svg width="84" height="77" viewBox="0 0 84 77" fill="none" xmlns="http://www.w3.org/2000/svg">
<rect width="84" height="77" rx="12" fill="#FEEFEB"/>
<g clip-path="url(#clip0_1_407)">
<path d="M44.576 27.8333C45.6606 27.8344 46.7005 28.2657 47.4674 29.0326C48.2343 29.7995 48.6656 30.8394 48.6667 31.924C48.6667 32.2776 48.8072 32.6168 49.0572 32.8668C49.3073 33.1169 49.6464 33.2573 50 33.2573C50.3537 33.2573 50.6928 33.1169 50.9428 32.8668C51.1929 32.6168 51.3334 32.2776 51.3334 31.924V31.8333C51.3334 31.808 51.3334 31.7853 51.3334 31.76C51.2889 29.997 50.5575 28.321 49.2953 27.0894C48.033 25.8578 46.3396 25.1678 44.576 25.1667H43.3334V23.8333C43.3334 23.4797 43.1929 23.1406 42.9428 22.8905C42.6928 22.6405 42.3536 22.5 42 22.5C41.6464 22.5 41.3073 22.6405 41.0572 22.8905C40.8072 23.1406 40.6667 23.4797 40.6667 23.8333V25.1667H39.424C37.8204 25.1684 36.2697 25.7403 35.0491 26.7802C33.8284 27.8202 33.0174 29.2603 32.7609 30.8432C32.5044 32.4262 32.8192 34.0487 33.6491 35.4209C34.4789 36.793 35.7697 37.8254 37.2907 38.3333L40.6667 39.46V49.1667H39.424C38.3394 49.1656 37.2996 48.7343 36.5327 47.9674C35.7657 47.2004 35.3344 46.1606 35.3334 45.076C35.3334 44.7224 35.1929 44.3832 34.9428 44.1332C34.6928 43.8831 34.3536 43.7427 34 43.7427C33.6464 43.7427 33.3073 43.8831 33.0572 44.1332C32.8072 44.3832 32.6667 44.7224 32.6667 45.076V45.1667C32.6667 45.192 32.6667 45.2147 32.6667 45.24C32.7112 47.003 33.4425 48.679 34.7048 49.9106C35.967 51.1422 37.6604 51.8321 39.424 51.8333H40.6667V53.1667C40.6667 53.5203 40.8072 53.8594 41.0572 54.1095C41.3073 54.3595 41.6464 54.5 42 54.5C42.3536 54.5 42.6928 54.3595 42.9428 54.1095C43.1929 53.8594 43.3334 53.5203 43.3334 53.1667V51.8333H44.576C46.1796 51.8316 47.7303 51.2597 48.951 50.2198C50.1716 49.1798 50.9827 47.7397 51.2392 46.1568C51.4956 44.5738 51.1808 42.9513 50.351 41.5791C49.5211 40.207 48.2304 39.1746 46.7094 38.6667L43.3334 37.54V27.8333H44.576ZM45.8694 41.1947C46.7913 41.5015 47.5738 42.1265 48.077 42.9577C48.5801 43.7888 48.771 44.772 48.6154 45.7311C48.4598 46.6902 47.9679 47.5625 47.2278 48.192C46.4877 48.8215 45.5476 49.167 44.576 49.1667H43.3334V40.3493L45.8694 41.1947ZM40.6667 36.6507L38.1334 35.8053C37.2117 35.4986 36.4292 34.8738 35.9261 34.0429C35.4229 33.212 35.2318 32.2291 35.3871 31.2702C35.5423 30.3113 36.0338 29.439 36.7734 28.8093C37.513 28.1796 38.4526 27.8336 39.424 27.8333H40.6667V36.6507Z" fill="#F05830"/>
</g>
<defs>
<clipPath id="clip0_1_407">
<rect width="32" height="32" fill="white" transform="translate(26 22.5)"/>
</clipPath>
</defs>
</svg>
