<svg width="57" height="58" viewBox="0 0 57 58" fill="none" xmlns="http://www.w3.org/2000/svg">
<path fill-rule="evenodd" clip-rule="evenodd" d="M36.3344 8.4325C36.1443 8.4325 35.9306 8.40875 35.7406 8.3375C33.4135 7.5207 30.9631 7.11096 28.4968 7.12625C25.9556 7.12625 23.5331 7.55375 21.2531 8.3375C20.3031 8.64625 19.3056 8.17125 18.9731 7.245C18.6406 6.31875 19.1394 5.2975 20.0656 4.965C22.7256 4.03875 25.5518 3.56375 28.4968 3.56375C31.4418 3.56375 34.2918 4.03875 36.9281 4.965C37.1857 4.96791 37.4397 5.02669 37.6724 5.13727C37.9052 5.24785 38.1111 5.40761 38.2761 5.60552C38.4411 5.80343 38.5612 6.03477 38.6281 6.2836C38.695 6.53242 38.7071 6.7928 38.6637 7.04677C38.6202 7.30074 38.5221 7.54225 38.3762 7.75464C38.2303 7.96702 38.0401 8.14523 37.8187 8.27697C37.5972 8.40871 37.3498 8.49084 37.0936 8.51769C36.8373 8.54454 36.5783 8.51548 36.3344 8.4325ZM11.7087 47.5749C11.2575 47.5749 10.8062 47.4086 10.45 47.0524C0.498745 37.1011 0.498745 20.9036 10.45 10.9524C11.1387 10.2636 12.2787 10.2636 12.9675 10.9524C13.6562 11.6411 13.6562 12.7811 12.9675 13.4699C4.39374 22.0436 4.39374 35.9849 12.9675 44.5349C13.6562 45.2236 13.6562 46.3636 12.9675 47.0524C12.6112 47.4086 12.16 47.5749 11.7087 47.5749ZM45.2963 47.5749C44.845 47.5749 44.3938 47.4086 44.0375 47.0524C43.7063 46.7172 43.5205 46.2649 43.5205 45.7936C43.5205 45.3224 43.7063 44.8701 44.0375 44.5349C52.6113 35.9611 52.6113 22.0199 44.0375 13.4699C43.7063 13.1347 43.5205 12.6824 43.5205 12.2111C43.5205 11.7399 43.7063 11.2876 44.0375 10.9524C44.7263 10.2636 45.8663 10.2636 46.555 10.9524C56.5063 20.9036 56.5063 37.1011 46.555 47.0524C46.1988 47.4086 45.7475 47.5749 45.2963 47.5749ZM20.0667 53.0161C22.7029 53.9423 25.5292 54.4173 28.4979 54.4411C31.4667 54.4411 34.2929 53.9423 36.9529 53.0161C37.8792 52.6836 38.3779 51.6623 38.0454 50.7361C37.7129 49.8098 36.6917 49.3348 35.7654 49.6436C33.5092 50.4273 31.0629 50.8548 28.5217 50.8548C25.9567 50.8548 23.5342 50.4273 21.2542 49.6436C20.3042 49.3111 19.3067 49.8098 18.9742 50.7361C18.8175 51.1833 18.8446 51.6744 19.0493 52.1018C19.2541 52.5291 19.6199 52.8579 20.0667 53.0161ZM20.7522 25.0338V29V33.0138C20.7522 37.9538 24.2434 39.9725 28.5184 37.5025L31.9622 35.5075L35.4059 33.5125C39.6809 31.0425 39.6809 27.005 35.4059 24.535L31.9622 22.54L28.5184 20.545C24.2434 18.075 20.7522 20.0938 20.7522 25.0338Z" fill="#236E57"/>
</svg>
