<svg width="84" height="77" viewBox="0 0 84 77" fill="none" xmlns="http://www.w3.org/2000/svg">
<rect width="84" height="77" rx="12" fill="#FDEFEF"/>
<path d="M34.6204 52.2124C34.3289 52.2123 34.0455 52.1168 33.8136 51.9403C33.5816 51.7639 33.4138 51.5163 33.336 51.2354C33.2581 50.9546 33.2744 50.6559 33.3823 50.3852C33.4903 50.1145 33.6839 49.8866 33.9337 49.7364C38.6577 46.8991 38.6577 40.8058 38.6577 37.1658C38.6577 36.1049 39.0791 35.0875 39.8293 34.3373C40.5794 33.5872 41.5968 33.1658 42.6577 33.1658C43.7186 33.1658 44.736 33.5872 45.4861 34.3373C46.2363 35.0875 46.6577 36.1049 46.6577 37.1658C46.6577 37.5194 46.5172 37.8585 46.2672 38.1086C46.0171 38.3586 45.678 38.4991 45.3244 38.4991C44.9708 38.4991 44.6316 38.3586 44.3816 38.1086C44.1315 37.8585 43.991 37.5194 43.991 37.1658C43.991 36.8121 43.8506 36.473 43.6005 36.223C43.3505 35.9729 43.0113 35.8324 42.6577 35.8324C42.3041 35.8324 41.965 35.9729 41.7149 36.223C41.4649 36.473 41.3244 36.8121 41.3244 37.1658C41.3244 41.0951 41.3244 48.4111 35.3057 52.0231C35.0986 52.1471 34.8618 52.2125 34.6204 52.2124ZM41.2377 54.1071C44.2804 51.0404 46.0577 46.7284 46.519 41.2791C46.5346 41.1043 46.5155 40.9281 46.4628 40.7607C46.4101 40.5933 46.3249 40.438 46.2121 40.3036C46.0992 40.1692 45.961 40.0584 45.8052 39.9775C45.6494 39.8967 45.4792 39.8474 45.3044 39.8324C45.1294 39.8145 44.9526 39.8319 44.7846 39.8838C44.6165 39.9356 44.4605 40.0207 44.3261 40.134C44.1916 40.2474 44.0813 40.3866 44.0017 40.5435C43.9222 40.7003 43.875 40.8716 43.863 41.0471C43.4484 45.9231 41.971 49.5804 39.3457 52.2218C39.0964 52.4727 38.957 52.8123 38.9581 53.166C38.9592 53.5197 39.1008 53.8585 39.3517 54.1078C39.6026 54.3571 39.9423 54.4965 40.296 54.4954C40.6496 54.4942 40.9884 54.3527 41.2377 54.1018V54.1071ZM48.171 53.8591C48.9798 52.5153 49.6533 51.0945 50.1817 49.6178C50.2922 49.2875 50.269 48.9271 50.1172 48.6137C49.9654 48.3002 49.697 48.0586 49.3693 47.9405C49.0417 47.8224 48.6809 47.8372 48.364 47.9817C48.0471 48.1262 47.7994 48.389 47.6737 48.7138C47.2043 50.0232 46.6067 51.2831 45.8897 52.4751C45.7988 52.6249 45.7384 52.7911 45.7117 52.9643C45.6851 53.1375 45.6928 53.3142 45.7345 53.4844C45.7761 53.6545 45.8509 53.8148 45.9545 53.9561C46.0582 54.0974 46.1886 54.2169 46.3384 54.3078C46.6409 54.4913 47.0039 54.5471 47.3476 54.463C47.5178 54.4213 47.6781 54.3465 47.8194 54.2429C47.9607 54.1393 48.0802 54.0089 48.171 53.8591ZM51.3244 45.4204C51.8183 42.6976 52.0417 39.9326 51.991 37.1658C51.9898 35.2768 51.4154 33.4327 50.3438 31.8772C49.2722 30.3216 47.7538 29.1278 45.9893 28.4535C44.2248 27.7793 42.2973 27.6563 40.4614 28.1008C38.6255 28.5453 36.9677 29.5364 35.707 30.9431C35.5843 31.0724 35.4887 31.2251 35.426 31.392C35.3632 31.5589 35.3346 31.7368 35.3418 31.915C35.349 32.0931 35.3919 32.2681 35.4679 32.4294C35.5439 32.5907 35.6515 32.7351 35.7844 32.8541C35.9172 32.9731 36.0725 33.0643 36.2412 33.1222C36.4099 33.1801 36.5884 33.2035 36.7663 33.1912C36.9443 33.1788 37.1179 33.1309 37.2769 33.0503C37.436 32.9697 37.5773 32.858 37.6924 32.7218C38.5928 31.7168 39.7769 31.0087 41.0883 30.691C42.3996 30.3734 43.7765 30.4611 45.037 30.9427C46.2974 31.4243 47.3821 32.2769 48.1476 33.3881C48.9131 34.4992 49.3234 35.8165 49.3244 37.1658C49.3736 39.7615 49.1672 42.3558 48.7084 44.9111C48.641 45.258 48.7142 45.6174 48.9117 45.9104C49.1092 46.2034 49.4149 46.406 49.7617 46.4738C49.8464 46.4907 49.9326 46.4992 50.019 46.4991C50.3279 46.4983 50.6269 46.3903 50.8649 46.1936C51.103 45.9969 51.2654 45.7236 51.3244 45.4204ZM35.991 37.1658C35.9907 36.7936 36.0214 36.4221 36.083 36.0551C36.1229 35.8784 36.1263 35.6955 36.093 35.5174C36.0598 35.3394 35.9907 35.17 35.8898 35.0196C35.789 34.8691 35.6585 34.7408 35.5065 34.6424C35.3544 34.5441 35.1839 34.4777 35.0053 34.4474C34.8268 34.4171 34.6439 34.4236 34.4679 34.4663C34.2919 34.509 34.1264 34.5871 33.9816 34.6959C33.8368 34.8046 33.7157 34.9418 33.6256 35.0989C33.5355 35.256 33.4784 35.4298 33.4577 35.6098C33.3697 36.1238 33.3251 36.6443 33.3244 37.1658C33.3244 43.3591 31.5297 46.4991 27.991 46.4991C27.6374 46.4991 27.2983 46.6396 27.0482 46.8896C26.7982 47.1397 26.6577 47.4788 26.6577 47.8324C26.6577 48.1861 26.7982 48.5252 27.0482 48.7752C27.2983 49.0253 27.6374 49.1658 27.991 49.1658C33.1497 49.1658 35.991 44.8991 35.991 37.1658ZM54.2577 53.7178C56.452 48.4833 57.4977 42.8389 57.3244 37.1658C57.3305 34.951 56.8288 32.7643 55.8577 30.7738C55.7811 30.6162 55.6742 30.4752 55.5431 30.3589C55.4121 30.2427 55.2594 30.1533 55.0938 30.0961C54.9282 30.0388 54.7529 30.0147 54.578 30.0252C54.4031 30.0357 54.232 30.0805 54.0744 30.1571C53.9168 30.2337 53.7758 30.3406 53.6596 30.4717C53.5433 30.6027 53.454 30.7554 53.3967 30.921C53.3394 31.0866 53.3154 31.2619 53.3258 31.4368C53.3363 31.6117 53.3811 31.7828 53.4577 31.9404C54.2511 33.5679 54.6616 35.3552 54.6577 37.1658C54.8255 42.4574 53.8623 47.724 51.8324 52.6138C51.7601 52.7734 51.72 52.9458 51.7144 53.121C51.7088 53.2961 51.7378 53.4707 51.7997 53.6346C51.8616 53.7986 51.9553 53.9488 52.0753 54.0765C52.1953 54.2042 52.3393 54.3071 52.499 54.3791C52.6717 54.4585 52.8596 54.4995 53.0497 54.4991C53.3047 54.498 53.554 54.4238 53.7681 54.2853C53.9822 54.1469 54.1521 53.9499 54.2577 53.7178ZM30.6577 41.1658V37.1658C30.6612 33.9842 31.9267 30.934 34.1763 28.6844C36.426 26.4347 39.4762 25.1693 42.6577 25.1658C45.2556 25.1571 47.7846 26.0001 49.8577 27.5658C50.1406 27.7779 50.4962 27.869 50.8463 27.819C51.1963 27.769 51.5122 27.582 51.7244 27.2991C51.9365 27.0162 52.0277 26.6606 51.9776 26.3105C51.9276 25.9605 51.7406 25.6446 51.4577 25.4324C48.9235 23.5197 45.8327 22.4894 42.6577 22.4991C38.7693 22.5037 35.0414 24.0504 32.2919 26.7999C29.5423 29.5495 27.9956 33.2773 27.991 37.1658V41.1658C27.991 41.5194 28.1315 41.8585 28.3816 42.1086C28.6316 42.3586 28.9708 42.4991 29.3244 42.4991C29.678 42.4991 30.0171 42.3586 30.2672 42.1086C30.5172 41.8585 30.6577 41.5194 30.6577 41.1658Z" fill="#EB5757"/>
</svg>
