<svg width="49" height="49" viewBox="0 0 49 49" fill="none" xmlns="http://www.w3.org/2000/svg">
<g clip-path="url(#clip0_1_548)">
<path fill-rule="evenodd" clip-rule="evenodd" d="M0.623047 24.0014C0.623047 10.7375 11.4109 -0.0512695 24.6686 -0.0512695C37.9262 -0.0512695 48.7141 10.7375 48.7141 24.0014C48.7141 37.2653 37.9262 48.054 24.6686 48.054C11.4109 48.054 0.623047 37.2653 0.623047 24.0014ZM2.22758 24.0014C2.22758 36.3802 12.2942 46.4519 24.6686 46.4519C37.043 46.4519 47.1096 36.3802 47.1096 24.0014C47.1096 11.6225 37.043 1.55084 24.6686 1.55084C12.2942 1.55084 2.22758 11.6225 2.22758 24.0014ZM38.2654 15.6053C38.1594 15.9389 38.0224 16.2619 37.8561 16.5699C38.0151 16.5034 38.1913 16.4899 38.3585 16.5315C38.5258 16.573 38.6753 16.6673 38.7848 16.8004C38.8943 16.9335 38.9581 17.0984 38.9666 17.2706C38.9752 17.4428 38.9281 17.6131 38.8323 17.7565C38.1997 18.7045 37.4196 19.5452 36.5215 20.2466L36.5229 20.4926C36.5229 27.7726 30.9836 35.3032 21.7162 35.3032C18.8884 35.3042 16.1199 34.4924 13.7401 32.9645C13.5877 32.8664 13.4729 32.7196 13.4144 32.5481C13.3559 32.3765 13.357 32.1902 13.4176 32.0194C13.4808 31.8499 13.5983 31.706 13.7519 31.6105C13.9055 31.5149 14.0865 31.473 14.2664 31.4914C16.0169 31.6974 17.7898 31.3959 19.3739 30.6228C18.6026 30.3059 17.9098 29.8242 17.3441 29.2113C16.7784 28.5985 16.3534 27.8694 16.0989 27.0751C16.0561 26.9427 16.0485 26.8013 16.0769 26.6651C16.1053 26.5288 16.1687 26.4023 16.2608 26.298L16.3133 26.2455C15.0927 25.1835 14.3354 23.6204 14.3354 21.9177C14.3355 21.7739 14.3718 21.6324 14.441 21.5063C14.5102 21.3802 14.61 21.2735 14.7313 21.1962C14.8302 21.1379 14.939 21.0983 15.0522 21.0792C14.5906 20.2178 14.3573 19.2525 14.3747 18.2753C14.392 17.2982 14.6593 16.3417 15.1511 15.4973C15.2165 15.3856 15.3079 15.2914 15.4175 15.2227C15.5271 15.1539 15.6516 15.1126 15.7806 15.1023C15.9095 15.092 16.0391 15.113 16.1582 15.1635C16.2773 15.2139 16.3825 15.2924 16.4648 15.3923C18.6126 18.0277 21.6923 19.7349 25.0648 20.1596C25.0339 19.3888 25.1589 18.6196 25.4324 17.8982C25.7058 17.1769 26.122 16.5182 26.6561 15.9617C27.1902 15.4051 27.8311 14.9622 28.5404 14.6594C29.2498 14.3567 30.0129 14.2003 30.7841 14.1997C32.2036 14.2015 33.5722 14.7289 34.626 15.6803C35.4941 15.4676 36.3259 15.1274 37.0943 14.6707C37.2342 14.5885 37.3958 14.5506 37.5577 14.5622C37.7196 14.5737 37.8741 14.634 38.001 14.7353C38.1279 14.8365 38.2211 14.9739 38.2683 15.1292C38.3155 15.2845 38.3145 15.4505 38.2654 15.6053ZM34.9849 19.5059C35.043 19.3851 35.1305 19.2808 35.2393 19.2025C35.3978 19.0894 35.5524 18.9709 35.7027 18.847L35.4298 18.8815C35.2485 18.9015 35.0659 18.8591 34.9119 18.7613C34.758 18.6635 34.6419 18.5162 34.5829 18.3436C34.5239 18.171 34.5254 17.9834 34.5872 17.8118C34.649 17.6402 34.7674 17.4947 34.9229 17.3994C35.0398 17.33 35.153 17.2544 35.2618 17.1729C35.0204 17.2389 34.776 17.2959 34.5285 17.3454C34.395 17.3718 34.2569 17.3638 34.1273 17.322C33.9977 17.2803 33.8808 17.2063 33.7877 17.1069C33.1665 16.4461 32.345 16.0086 31.4501 15.862C30.5553 15.7154 29.6371 15.868 28.8377 16.296C28.0383 16.7241 27.4021 17.4037 27.0278 18.2299C26.6534 19.0561 26.5617 19.9826 26.7668 20.8662C26.8238 21.1122 26.7623 21.3687 26.6018 21.5622C26.4414 21.7557 26.2104 21.8502 25.9465 21.8487C22.2194 21.6562 18.7022 20.0641 16.0974 17.3904C15.8937 18.2137 15.949 19.0799 16.2557 19.8706C16.5625 20.6613 17.1058 21.338 17.8114 21.8082C18.1098 22.0062 18.2387 22.3798 18.1293 22.7188C18.0198 23.0578 17.6929 23.2738 17.3405 23.2753C16.9311 23.2618 16.5217 23.2033 16.1229 23.1028C16.3352 23.8174 16.7377 24.4608 17.2874 24.9641C17.8371 25.4675 18.5132 25.8119 19.2435 25.9605C19.4212 25.9951 19.5819 26.089 19.6995 26.2267C19.817 26.3645 19.8844 26.5381 19.8907 26.7191C19.897 26.9001 19.8417 27.0779 19.734 27.2235C19.6262 27.369 19.4723 27.4738 19.2974 27.5206C18.936 27.6181 18.5642 27.6811 18.1848 27.7066C18.5583 28.2347 19.0506 28.6676 19.6221 28.9704C20.1936 29.2732 20.8282 29.4374 21.4748 29.4498C21.6401 29.4532 21.8002 29.5077 21.9333 29.6057C22.0665 29.7036 22.1661 29.8404 22.2186 29.9971C22.2712 30.1539 22.274 30.3231 22.2267 30.4815C22.1795 30.64 22.0845 30.78 21.9547 30.8823C20.6213 31.9329 19.0554 32.6479 17.3885 32.9675C18.7803 33.4527 20.2438 33.7002 21.7177 33.6995C29.9818 33.6995 34.9199 26.9836 34.9199 20.4911C34.9199 20.2931 34.9154 20.0921 34.9064 19.8941C34.8997 19.7602 34.9267 19.6267 34.9849 19.5059Z" fill="#5C5C5C"/>
</g>
<defs>
<clipPath id="clip0_1_548">
<rect width="47.9861" height="48.0033" fill="white" transform="translate(0.675781)"/>
</clipPath>
</defs>
</svg>
