<svg width="84" height="77" viewBox="0 0 84 77" fill="none" xmlns="http://www.w3.org/2000/svg">
<rect width="84" height="77" rx="12" fill="#ECF3F1"/>
<g clip-path="url(#clip0_1_423)">
<path d="M33.3333 45.1666C34.4379 45.1666 35.3333 44.2712 35.3333 43.1666C35.3333 42.0621 34.4379 41.1666 33.3333 41.1666C32.2288 41.1666 31.3333 42.0621 31.3333 43.1666C31.3333 44.2712 32.2288 45.1666 33.3333 45.1666Z" fill="#4F4F4F"/>
<path d="M51.3333 26.5H32.6667C30.8992 26.5021 29.2047 27.2052 27.955 28.455C26.7052 29.7047 26.0021 31.3992 26 33.1667L26 43.8333C26.0021 45.6008 26.7052 47.2953 27.955 48.545C29.2047 49.7948 30.8992 50.4979 32.6667 50.5H51.3333C53.1008 50.4979 54.7953 49.7948 56.045 48.545C57.2948 47.2953 57.9979 45.6008 58 43.8333V33.1667C57.9979 31.3992 57.2948 29.7047 56.045 28.455C54.7953 27.2052 53.1008 26.5021 51.3333 26.5ZM32.6667 29.1667H51.3333C52.3942 29.1667 53.4116 29.5881 54.1618 30.3382C54.9119 31.0884 55.3333 32.1058 55.3333 33.1667H28.6667C28.6667 32.1058 29.0881 31.0884 29.8382 30.3382C30.5884 29.5881 31.6058 29.1667 32.6667 29.1667ZM51.3333 47.8333H32.6667C31.6058 47.8333 30.5884 47.4119 29.8382 46.6618C29.0881 45.9116 28.6667 44.8942 28.6667 43.8333V35.8333H55.3333V43.8333C55.3333 44.8942 54.9119 45.9116 54.1618 46.6618C53.4116 47.4119 52.3942 47.8333 51.3333 47.8333Z" fill="#4F4F4F"/>
</g>
<defs>
<clipPath id="clip0_1_423">
<rect width="32" height="32" fill="white" transform="translate(26 22.5)"/>
</clipPath>
</defs>
</svg>
